<?xml version="1.0" standalone="no"?>
<!DOCTYPE svg PUBLIC "-//W3C//DTD SVG 20010904//EN"
 "http://www.w3.org/TR/2001/REC-SVG-20010904/DTD/svg10.dtd">
<svg version="1.0" xmlns="http://www.w3.org/2000/svg"
 width="457.000000pt" height="457.000000pt" viewBox="0 0 457.000000 457.000000"
 preserveAspectRatio="xMidYMid meet">
<metadata>
Created by potrace 1.14, written by Peter Selinger 2001-2017
</metadata>
<g transform="translate(0.000000,457.000000) scale(0.100000,-0.100000)"
fill="#000000" stroke="none">
<path d="M0 2285 l0 -2275 2285 0 2285 0 0 2275 0 2275 -2285 0 -2285 0 0
-2275z m1045 163 c-65 -68 -122 -127 -127 -132 -4 -5 -11 -6 -15 -3 -4 4 22
38 58 75 61 64 61 64 7 12 -32 -30 -58 -49 -58 -42 0 7 12 24 26 37 14 13 23
28 20 34 -8 12 48 77 78 93 11 6 -1 -13 -29 -41 -72 -75 -42 -62 40 17 43 42
51 47 21 15 -70 -74 -50 -77 26 -4 35 33 65 61 67 61 2 0 -49 -55 -114 -122z
m130 20 c-50 -51 -122 -127 -160 -168 l-70 -75 90 85 c138 130 230 216 225
208 -3 -3 -65 -67 -137 -141 -73 -74 -133 -139 -133 -143 0 -4 53 45 118 109
66 64 123 117 128 117 5 0 -47 -57 -116 -127 -144 -146 -126 -138 34 17 133
128 120 105 -24 -43 -58 -60 -107 -111 -110 -115 -6 -9 66 55 94 84 12 11 59
56 106 100 l85 78 -90 -94 c-173 -182 -203 -218 -100 -120 55 52 101 98 103
102 2 4 24 23 50 44 28 22 5 -6 -58 -72 -127 -131 -112 -115 -129 -139 -8 -11
43 36 114 105 71 69 122 116 114 105 -8 -11 -16 -22 -19 -25 -3 -3 -54 -57
-115 -120 -105 -109 -100 -112 13 -6 84 81 60 39 -35 -59 l-88 -90 95 90 c117
111 216 202 210 193 -3 -4 -50 -53 -105 -110 -163 -168 -188 -201 -60 -78 107
103 189 177 175 158 -3 -4 -61 -63 -129 -132 -68 -69 -120 -126 -115 -126 5 0
65 55 133 123 149 146 141 128 -13 -33 -122 -126 -89 -101 72 55 57 55 106
102 110 105 3 3 -61 -67 -143 -155 -104 -112 -124 -136 -65 -80 46 44 87 82
90 85 134 125 140 129 35 20 -178 -184 -198 -212 -48 -67 72 70 135 127 139
127 5 0 -43 -52 -106 -115 -63 -63 -111 -115 -106 -115 5 0 64 53 130 118 67
64 107 101 91 82 -39 -45 -25 -30 -140 -150 -109 -114 -69 -82 93 75 131 127
137 131 32 20 -47 -50 -108 -115 -135 -145 -41 -45 -36 -42 30 20 165 155 186
171 70 52 -66 -67 -115 -122 -110 -122 5 0 54 44 107 97 54 54 98 93 98 88 0
-6 -42 -52 -94 -104 l-94 -93 -78 -5 c-65 -4 -90 -1 -136 17 -103 38 -184 144
-195 254 l-5 51 115 113 c63 62 125 120 138 129 13 9 -30 -39 -96 -106 -66
-66 -116 -121 -111 -121 5 0 61 51 125 113 135 131 121 108 -29 -47 -104 -109
-105 -109 -25 -39 44 40 116 108 160 152 44 45 82 81 85 81 2 0 -36 -42 -85
-92z m505 -69 l0 -79 100 0 100 0 0 85 c0 78 2 85 20 85 19 0 20 -7 20 -196 0
-181 -1 -195 -17 -192 -15 3 -18 17 -21 91 l-3 87 -99 0 -99 0 -3 -87 c-3 -74
-6 -88 -20 -91 -17 -3 -18 11 -18 191 0 106 3 197 7 200 3 4 12 2 20 -4 9 -8
13 -37 13 -90z m990 -105 c0 -166 -2 -194 -15 -194 -8 0 -15 7 -15 15 0 12 -7
11 -40 -6 -114 -60 -239 60 -184 176 9 20 31 46 48 56 37 23 114 25 142 4 10
-8 22 -15 27 -15 4 0 7 35 7 78 0 43 3 82 6 85 19 19 24 -22 24 -199z m-1336
74 c-43 -46 -83 -85 -89 -87 -5 -2 28 35 75 83 46 47 86 86 89 86 2 0 -32 -37
-75 -82z m834 -24 c22 -15 24 -15 37 2 27 37 36 3 33 -122 -3 -104 -5 -119
-20 -122 -11 -2 -18 3 -18 11 0 12 -7 11 -37 -5 -152 -79 -279 139 -136 233
35 23 110 25 141 3z m156 0 c6 -15 8 -15 26 1 19 17 50 15 50 -3 0 -6 -16 -22
-35 -36 -34 -27 -35 -28 -35 -101 0 -82 -6 -105 -26 -105 -11 0 -14 26 -14
130 0 104 3 130 14 130 8 0 17 -7 20 -16z m446 -41 c13 -32 32 -76 43 -98 l20
-40 18 43 c18 42 18 44 -1 82 -11 22 -20 46 -20 55 0 24 29 17 42 -10 6 -14
14 -25 18 -25 4 0 12 11 18 25 12 26 42 35 42 13 0 -7 -9 -32 -20 -56 -19 -41
-19 -43 -1 -85 l19 -42 30 66 c16 36 32 75 36 86 9 30 34 49 47 36 7 -7 -10
-53 -52 -139 l-61 -129 -27 57 c-14 32 -29 58 -32 58 -4 0 -17 -25 -29 -56
-18 -44 -25 -53 -35 -42 -14 16 -115 233 -115 248 0 5 8 10 19 10 13 0 25 -16
41 -57z m514 42 c35 -18 36 -18 36 0 0 8 7 15 15 15 13 0 15 -21 15 -130 0
-105 -3 -130 -14 -130 -8 0 -16 5 -18 10 -2 7 -16 5 -40 -5 -48 -19 -81 -19
-125 2 -92 43 -98 180 -10 233 38 24 101 26 141 5z m156 -1 c0 -14 2 -14 22 0
55 39 65 5 13 -47 -34 -34 -35 -37 -35 -116 0 -65 -3 -81 -15 -81 -8 0 -15 6
-15 13 0 6 -2 55 -4 107 -2 52 -2 105 1 118 6 25 33 31 33 6z m291 -1 c32 -19
64 -76 55 -99 -4 -11 -29 -14 -117 -14 l-111 0 6 -27 c16 -65 110 -98 151 -53
20 22 40 26 51 8 10 -16 -40 -56 -81 -64 -48 -9 -78 1 -120 37 -91 80 -34 229
88 229 28 0 61 -7 78 -17z m-2283 -273 c-12 -17 -33 -38 -47 -46 -16 -10 -9 1
19 30 51 53 60 58 28 16z"/>
<path d="M2473 2295 c-32 -32 -35 -39 -30 -78 7 -53 44 -87 93 -87 46 0 70 14
90 52 22 42 11 90 -27 122 -44 37 -83 34 -126 -9z"/>
<path d="M2033 2295 c-32 -32 -35 -39 -30 -78 7 -55 43 -87 97 -87 54 0 90 32
97 87 5 39 2 46 -30 78 -25 25 -44 35 -67 35 -23 0 -42 -10 -67 -35z"/>
<path d="M3168 2315 c-56 -31 -67 -110 -21 -157 36 -38 102 -40 138 -3 34 33
35 103 3 140 -28 32 -83 41 -120 20z"/>
<path d="M3599 2301 l-34 -30 88 -1 c48 0 87 4 87 8 0 17 -38 43 -72 49 -30 4
-41 0 -69 -26z"/>
</g>
</svg>
